HIERARCHY
ROOT Hips
{
	OFFSET 0.00000 0.00000 0.00000
	CHANNELS 6 Xposition Yposition Zposition Zrotation Yrotation Xrotation 
	JOINT LHipJoint
	{
		OFFSET 0 0 0
		CHANNELS 3 Zrotation Yrotation Xrotation
		JOINT LeftHip
		{
			OFFSET 1.62964 -1.40469 0.78906
			CHANNELS 3 Zrotation Yrotation Xrotation
			JOINT LeftKnee
			{
				OFFSET 2.29640 -6.30932 0.00000
				CHANNELS 3 Zrotation Yrotation Xrotation
				JOINT LeftAnkle
				{
					OFFSET 2.29451 -6.30412 0.00000
					CHANNELS 3 Zrotation Yrotation Xrotation
					JOINT LeftToe
					{
						OFFSET 0.03611 -0.09921 1.56387
						CHANNELS 3 Zrotation Yrotation Xrotation
						End Site
						{
							OFFSET 0.00000 -0.00000 0.80291
						}
					}
				}
			}
		}
	}
	JOINT RHipJoint
	{
		OFFSET 0 0 0
		CHANNELS 3 Zrotation Yrotation Xrotation
		JOINT RightHip
		{
			OFFSET -1.73712 -1.40469 0.78906
			CHANNELS 3 Zrotation Yrotation Xrotation
			JOINT RightKnee
			{
				OFFSET -2.28137 -6.26801 0.00000
				CHANNELS 3 Zrotation Yrotation Xrotation
				JOINT RightAnkle
				{
					OFFSET -2.28681 -6.28298 0.00000
					CHANNELS 3 Zrotation Yrotation Xrotation
					JOINT RightToe
					{
						OFFSET -0.15927 -0.43759 1.61103
						CHANNELS 3 Zrotation Yrotation Xrotation
						End Site
						{
							OFFSET -0.00000 -0.00000 0.84630
						}
					}
				}
			}
		}
	}
	JOINT lowerback
	{
		OFFSET 0 0 0
		CHANNELS 3 Zrotation Yrotation Xrotation
		JOINT Chest
		{
			OFFSET -0.04227 2.04338 -0.00225
			CHANNELS 3 Zrotation Yrotation Xrotation
			JOINT Chest2
			{
				OFFSET -0.02148 2.04482 -0.04273
				CHANNELS 3 Zrotation Yrotation Xrotation
				JOINT lowerneck
				{
					OFFSET 0 0 0
					CHANNELS 3 Zrotation Yrotation Xrotation
					JOINT Neck
					{
						OFFSET 0.09180 1.44629 0.19359
						CHANNELS 3 Zrotation Yrotation Xrotation
						JOINT Head
						{
							OFFSET 0.00887 1.40645 0.14750
							CHANNELS 3 Zrotation Yrotation Xrotation
							End Site
							{
								OFFSET -0.00669 1.50671 0.03707
							}
						}
					}
				}
				JOINT LeftCollar
				{
					OFFSET 0 0 0
					CHANNELS 3 Zrotation Yrotation Xrotation
					JOINT LeftShoulder
					{
						OFFSET 2.17674 1.86763 -0.06520
CHANNELS 3 Zrotation Xrotation Yrotation
						JOINT LeftElbow
						{
OFFSET 0 -4.657760 0.000000
CHANNELS 3 Zrotation Xrotation Yrotation
							JOINT LeftWrist
							{
OFFSET 0 -3.555390 0.000000
CHANNELS 3 Zrotation Xrotation Yrotation
								JOINT lhand
								{
									OFFSET 0 0 0
CHANNELS 3 Zrotation Xrotation Yrotation
									JOINT LFingers
									{
OFFSET 0 -0.707260 0.000000
CHANNELS 3 Zrotation Xrotation Yrotation
										End Site
										{
OFFSET 0 -0.570220 0.000000
										}
									}
								}
								JOINT LThumb
								{
OFFSET 0 0.000000 0.000000
CHANNELS 3 Zrotation Xrotation Yrotation
									End Site
									{
OFFSET 0 -0.578920 0.578920
									}
								}
							}
						}
					}
				}
				JOINT RightCollar
				{
					OFFSET 0 0 0
					CHANNELS 3 Zrotation Yrotation Xrotation
					JOINT RightShoulder
					{
						OFFSET -2.80694 1.55459 -0.32496
CHANNELS 3 Zrotation Xrotation Yrotation
						JOINT RightElbow
						{
OFFSET 0 -4.719250 -0.000000
CHANNELS 3 Zrotation Xrotation Yrotation
							JOINT RightWrist
							{
OFFSET 0 -3.569900 0.000000
CHANNELS 3 Zrotation Xrotation Yrotation
								JOINT rhand
								{
									OFFSET 0 0 0
CHANNELS 3 Zrotation Xrotation Yrotation
									JOINT RFingers
									{
OFFSET 0 -0.507760 0.000000
CHANNELS 3 Zrotation Xrotation Yrotation
										End Site
										{
OFFSET 0 -0.409370 0.000000
										}
									}
								}
								JOINT RThumb
								{
OFFSET 0 0.000000 0.000000
CHANNELS 3 Zrotation Xrotation Yrotation
									End Site
									{
OFFSET 0 -0.415620 0.415620
									}
								}
							}
						}
					}
				}
			}
		}
	}
}
MOTION
Frames: 9
Frame Time: 0.008333333333333333
-0.930200 18.039700 21.014100 177.159000 -1.907200 -154.369000 0.000000 0.000000 0.000000 -20.665800 -19.962800 -22.897400 0.586500 4.903300 13.632900 0.173600 -3.847400 -7.477000 3.044800 -10.767300 -31.499000 0.000000 0.000000 0.000000 18.039000 14.388800 -22.612600 -0.291000 -3.468800 9.586900 -1.045400 2.169800 -18.720500 -1.271100 7.145800 -20.148100 -4.492800 -3.672800 -23.911900 -0.384400 -3.805000 0.283300 0.751600 -2.133200 14.059300 -4.345800 1.804200 -2.137200 1.964900 3.099300 13.250700 1.606800 1.649800 4.689000 -0.000000 -0.000000 0.000000 6.714500 0.720000 -17.517700 15.568100 -24.931600 3.461900 21.396100 -14.091200 17.246700 0.000000 0.000000 0.000000 -7.125000 0.000000 0.000000 -4.300500 11.580100 -3.359400 -0.000000 -0.000000 0.000000 1.740700 9.255900 12.345700 -20.259600 -30.953900 -5.664300 -13.843200 8.279200 58.432800 0.000000 0.000000 0.000000 7.125000 0.000000 -0.000000 89.371900 76.907700 -75.907800
-0.929768 18.035490 21.017243 177.183933 -1.790170 -154.174364 0.000000 0.000000 0.000000 -20.542913 -19.948097 -23.183413 0.584903 4.896842 13.614697 0.175772 -3.721607 -7.504803 3.125015 -10.894522 -31.925159 0.000000 0.000000 0.000000 17.907114 14.830634 -22.744882 -0.288130 -3.451925 9.539587 -1.037830 1.891517 -18.714936 -1.420704 7.537817 -21.318837 -4.795660 -3.609990 -24.195125 -0.289904 -3.639042 0.255050 1.077972 -2.086431 14.203320 -4.192253 1.670605 -1.846358 1.879064 2.906396 13.103703 1.532054 1.560491 4.585732 0.000000 0.000000 0.000000 6.632840 0.253587 -17.534930 15.176650 -24.391470 3.298597 20.816379 -13.691993 17.458642 0.000000 0.000000 0.000000 -7.125000 0.000000 0.000000 -4.696692 11.431323 -3.685553 0.000000 0.000000 0.000000 1.718438 9.669975 14.797697 -21.410251 -32.304059 -6.267742 -33.843978 21.474409 65.072711 0.000000 0.000000 0.000000 7.125000 0.000000 0.000000 130.980223 -78.186648 140.533973
-0.934274 18.029582 21.017301 177.257339 -1.802967 -154.079876 0.000000 0.000000 0.000000 -20.456984 -19.892828 -23.302495 0.582070 4.885081 13.581015 0.175653 -3.718991 -7.501904 3.320616 -11.193592 -32.939327 0.000000 0.000000 0.000000 17.946269 14.916295 -22.815207 -0.286273 -3.441009 9.509012 -1.037481 1.872835 -18.715538 -1.411069 7.512852 -21.244025 -4.941766 -3.551366 -24.424714 -0.206250 -3.518269 0.259669 1.289878 -2.047557 14.346081 -4.000348 1.548019 -1.639361 1.786531 2.739368 13.072587 1.454420 1.486732 4.541444 0.000000 0.000000 0.000000 6.601728 -0.088171 -17.596904 14.915602 -24.028204 3.191548 19.855352 -13.303157 17.666002 0.000000 0.000000 0.000000 -7.125000 0.000000 0.000000 -5.342488 11.335546 -4.207621 0.000000 0.000000 0.000000 1.709941 9.787622 14.774586 -21.551934 -32.466914 -6.343655 -28.131263 15.414153 63.380433 0.000000 0.000000 0.000000 7.125000 0.000000 0.000000 115.913161 -79.064788 126.240874
-0.940416 18.023116 21.017183 177.277377 -1.755422 -153.988775 0.000000 0.000000 0.000000 -20.442152 -19.910759 -23.392972 0.582032 4.884969 13.580779 0.180450 -3.654419 -7.592214 3.627662 -11.646802 -34.494907 0.000000 0.000000 0.000000 17.875553 15.142807 -22.830824 -0.284721 -3.431625 9.482853 -1.038263 1.757949 -18.751222 -1.312757 7.255416 -20.475127 -5.126030 -3.488944 -24.641651 -0.150674 -3.381527 0.242486 1.499610 -2.004182 14.453715 -3.835740 1.508317 -1.557328 1.715358 2.702923 13.218645 1.401221 1.479681 4.582178 0.000000 0.000000 0.000000 6.577194 -0.290117 -17.688151 14.734357 -23.774641 3.118084 18.802286 -13.013641 17.940015 0.000000 0.000000 0.000000 -7.125000 0.000000 0.000000 -6.050242 11.179583 -4.790296 0.000000 0.000000 0.000000 1.699221 9.822032 14.446132 -21.580427 -32.499563 -6.358912 -23.218870 10.634550 61.077010 0.000000 0.000000 0.000000 7.125000 0.000000 0.000000 98.314433 -79.099189 109.245317
-0.945497 18.017005 21.016962 177.261838 -1.627762 -153.919619 0.000000 0.000000 0.000000 -20.458565 -19.971285 -23.394066 0.574191 4.852473 13.488231 0.186176 -3.564035 -7.698894 3.693662 -11.741032 -34.822123 0.000000 0.000000 0.000000 17.739110 15.446726 -22.804268 -0.283230 -3.422622 9.457792 -1.031437 1.603807 -18.726131 -1.177206 6.884161 -19.373556 -5.481761 -3.394554 -24.882855 -0.088735 -3.152961 0.217935 1.849715 -1.934050 14.567523 -3.476627 1.444795 -1.252503 1.450434 2.633129 13.185585 1.238168 1.456998 4.517018 0.000000 0.000000 0.000000 6.580547 -0.420029 -18.498798 14.526790 -23.482534 3.034963 18.679838 -12.534899 18.006092 0.000000 0.000000 0.000000 -7.125000 0.000000 0.000000 -6.134184 11.125905 -4.863999 0.000000 0.000000 0.000000 1.681784 9.764359 12.983339 -21.338716 -32.220962 -6.229813 -13.610477 3.464070 55.538393 0.000000 0.000000 0.000000 7.125000 0.000000 0.000000 75.070912 8.176521 13.253259
-0.951302 18.009904 21.012923 177.304442 -1.521761 -153.822791 0.000000 0.000000 0.000000 -20.444116 -19.906001 -23.408576 0.561179 4.798097 13.333659 0.186803 -3.572876 -7.711905 3.685442 -11.729585 -34.781944 0.000000 0.000000 0.000000 17.770812 15.321121 -22.946578 -0.282249 -3.416833 9.441452 -1.017480 1.848520 -18.535557 -1.105185 6.679501 -18.769280 -5.571259 -3.325401 -25.199361 -0.084545 -3.018656 0.236098 1.942334 -1.884474 14.762482 -3.189222 1.442280 -1.075742 1.260181 2.632767 13.105147 1.117690 1.463832 4.456852 0.000000 0.000000 0.000000 6.692673 -0.538760 -19.516875 14.312658 -23.179866 2.950133 19.632074 -11.779538 17.901130 0.000000 0.000000 0.000000 -7.125000 0.000000 0.000000 -5.502839 11.117868 -4.359284 0.000000 0.000000 0.000000 1.715095 9.660777 12.222633 -21.126363 -31.975520 -6.116742 -12.852897 3.552583 52.150227 0.000000 0.000000 0.000000 7.125000 0.000000 0.000000 63.158352 75.792318 -49.454899
-0.957923 18.003132 21.009797 177.365274 -1.415424 -153.749429 0.000000 0.000000 0.000000 -20.431855 -19.773026 -23.464601 0.556142 4.776856 13.273245 0.190091 -3.612602 -7.780008 3.636173 -11.659799 -34.538994 0.000000 0.000000 0.000000 17.843539 15.113921 -23.053445 -0.276877 -3.384404 9.350814 -1.003028 2.152805 -18.328755 -1.086028 6.623379 -18.604209 -5.478838 -3.285316 -25.421007 -0.130608 -2.973182 0.265723 1.843608 -1.857644 14.911241 -3.010642 1.513433 -1.024654 1.221364 2.724954 13.097020 1.075479 1.516924 4.443212 0.000000 0.000000 0.000000 6.881608 -0.566969 -20.108170 14.257086 -23.101025 2.928194 20.096182 -11.169940 17.824149 0.000000 0.000000 0.000000 -7.125000 0.000000 0.000000 -5.193299 11.140067 -4.109430 0.000000 0.000000 0.000000 1.802777 9.589470 12.415856 -21.036305 -31.870767 -6.069144 -14.791672 5.249999 51.452426 0.000000 0.000000 0.000000 7.125000 0.000000 0.000000 59.486064 76.276527 -46.706289
-0.965058 17.999817 21.013672 177.398826 -1.281104 -153.720147 0.000000 0.000000 0.000000 -20.401894 -19.771789 -23.498522 0.554012 4.767950 13.247843 0.197355 -3.543991 -7.915671 3.422174 -11.348997 -33.466092 0.000000 0.000000 0.000000 17.794187 15.266623 -23.049089 -0.273318 -3.363108 9.291301 -0.996730 2.109229 -18.278469 -1.043076 6.495126 -18.228122 -5.443069 -3.257450 -25.489006 -0.155275 -2.937893 0.291152 1.804683 -1.838802 14.973789 -2.938925 1.591239 -0.987503 1.221587 2.827988 13.097717 1.066233 1.572077 4.434159 0.000000 0.000000 0.000000 6.984280 -0.629376 -20.249621 14.274672 -23.126018 2.935149 20.270267 -11.011075 17.783321 0.000000 0.000000 0.000000 -7.125000 0.000000 0.000000 -5.076327 11.160687 -4.013912 0.000000 0.000000 0.000000 1.890099 9.517335 12.621306 -21.015757 -31.846767 -6.058231 -15.277264 5.565682 50.787629 0.000000 0.000000 0.000000 7.125000 0.000000 0.000000 56.667288 76.192153 -44.150503
-0.972011 17.994616 21.015405 177.440409 -1.120347 -153.556494 0.000000 0.000000 0.000000 -20.322637 -19.848547 -23.685157 0.550364 4.752309 13.203533 0.206268 -3.428208 -8.080749 3.314770 -11.187929 -32.916404 0.000000 0.000000 0.000000 17.714000 15.452093 -23.282451 -0.278108 -3.391847 9.371642 -0.996965 2.094418 -18.284047 -1.076884 6.596110 -18.524237 -5.425703 -3.250973 -25.823504 -0.125216 -2.911790 0.372245 1.824433 -1.830403 15.259780 -3.013212 1.625996 -1.069930 1.194102 2.867652 12.991763 1.070850 1.581429 4.410409 0.000000 0.000000 0.000000 6.919861 -0.999263 -20.116444 14.176994 -22.987190 2.896872 20.459707 -10.707859 17.825331 0.000000 0.000000 0.000000 -7.125000 0.000000 0.000000 -4.954265 11.092530 -3.923655 0.000000 0.000000 0.000000 1.855243 9.281369 12.970241 -20.999788 -31.828142 -6.049839 -14.636686 6.034365 55.957844 0.000000 0.000000 0.000000 7.125000 0.000000 0.000000 78.524372 77.198158 -65.481883
